<svg id="Capa_1" enable-background="new 0 0 512 512" height="512" viewBox="0 0 512 512" width="512" xmlns="http://www.w3.org/2000/svg"><g><g><g><g><g><g><g><path d="m491.133 375.14h-470.267c-11.523 0-20.865-9.341-20.865-20.865v-90.327c0-11.523 9.341-20.865 20.865-20.865h470.267c11.523 0 20.865 9.341 20.865 20.865v90.327c0 11.523-9.341 20.865-20.865 20.865z" fill="#557983"/><path d="m511.997 263.943v90.335c0 11.521-9.339 20.859-20.859 20.859h-45.866c11.521 0 20.859-9.339 20.859-20.859v-90.335c0-11.521-9.339-20.859-20.859-20.859h45.866c11.52 0 20.859 9.339 20.859 20.859z" fill="#47666b"/></g><g><path d="m512 148.161v167.59c0 11.528-9.344 20.871-20.861 20.871h-470.268c-11.527.001-20.871-9.343-20.871-20.871v-167.59c0-11.517 9.344-20.851 20.871-20.851h470.267c11.518.001 20.862 9.334 20.862 20.851z" fill="#f82f40"/><g fill="#e22334"><path d="m480.971 167.127c0 52.467-42.526 95.003-95.003 95.003-52.467 0-95.003-42.536-95.003-95.003 0-14.216 3.121-27.702 8.715-39.817h172.576c5.593 12.116 8.715 25.601 8.715 39.817z"/><path d="m511.997 148.167v167.588c0 11.531-9.339 20.87-20.859 20.87h-36.486c11.521 0 20.87-9.338 20.87-20.87v-167.588c0-11.521-9.349-20.859-20.87-20.859h36.486c11.52 0 20.859 9.338 20.859 20.859z"/></g></g></g></g></g></g><g fill="#fcb44d"><g><path d="m472.516 69.251c-1.985 0-3.97-.76-5.48-2.28-3.008-3.026-2.993-7.918.033-10.927l7.722-7.676c3.027-3.008 7.919-2.994 10.927.033 3.008 3.026 2.993 7.918-.033 10.927l-7.722 7.676c-1.507 1.498-3.478 2.247-5.447 2.247z"/><path d="m449.998 53.291c-.623 0-1.255-.076-1.886-.234-4.139-1.038-6.652-5.235-5.614-9.374l2.679-10.679c1.038-4.139 5.235-6.654 9.374-5.614 4.139 1.038 6.652 5.235 5.614 9.374l-2.679 10.679c-.88 3.507-4.029 5.848-7.488 5.848z"/><path d="m488.347 91.862c-3.477 0-6.636-2.364-7.499-5.892-1.014-4.145 1.524-8.327 5.669-9.341l10.697-2.617c4.149-1.013 8.327 1.525 9.341 5.669 1.014 4.145-1.524 8.327-5.669 9.341l-10.697 2.617c-.617.151-1.234.223-1.842.223z"/></g><g><path d="m299.424 69.251c-1.97 0-3.94-.748-5.447-2.247l-7.722-7.676c-3.026-3.008-3.041-7.9-.032-10.927 3.008-3.025 7.9-3.04 10.927-.032l7.722 7.676c3.026 3.008 3.041 7.9.032 10.927-1.511 1.518-3.496 2.279-5.48 2.279z"/><path d="m321.942 53.291c-3.46 0-6.608-2.341-7.488-5.849l-2.679-10.679c-1.038-4.139 1.475-8.336 5.614-9.374 4.143-1.041 8.336 1.476 9.374 5.614l2.679 10.679c1.038 4.139-1.475 8.336-5.614 9.374-.631.159-1.264.235-1.886.235z"/><path d="m283.593 91.862c-.608 0-1.225-.072-1.842-.223l-10.697-2.617c-4.145-1.014-6.683-5.196-5.669-9.341s5.194-6.686 9.341-5.669l10.697 2.617c4.145 1.014 6.683 5.196 5.669 9.341-.863 3.528-4.022 5.892-7.499 5.892z"/></g></g></g><g><g><circle cx="385.97" cy="144.616" fill="#fb6672" r="93.902"/><path d="m479.869 144.615c0 51.863-42.038 93.901-93.901 93.901-7.321 0-14.442-.84-21.284-2.423 48.564-2.261 87.244-42.348 87.244-91.478 0-49.123-38.68-89.217-87.244-91.478 6.842-1.583 13.964-2.423 21.284-2.423 51.863-.001 93.901 42.045 93.901 93.901z" fill="#fb4a59"/><g><g><path d="m398.331 115.34h-24.725v-25.087c0-6.828 5.535-12.363 12.363-12.363 6.828 0 12.363 5.535 12.363 12.363v25.087z" fill="#90bac4"/></g><g><path d="m385.969 214.3c-11.668 0-21.127-9.459-21.127-21.127v-35.512h42.255v35.512c-.001 11.668-9.46 21.127-21.128 21.127z" fill="#90bac4"/></g><path d="m423.179 153.113v-18.436c0-20.551-16.66-37.21-37.21-37.21-20.551 0-37.21 16.66-37.21 37.21v18.436c0 4.708-2.509 9.06-6.583 11.419-4.074 2.359-6.583 6.711-6.583 11.419v2.382c0 4.211 3.413 7.624 7.624 7.624h85.504c4.211 0 7.624-3.413 7.624-7.624v-2.382c0-4.708-2.509-9.06-6.583-11.419-4.075-2.359-6.583-6.711-6.583-11.419z" fill="#eef4f5"/><path d="m436.348 175.955v2.379c0 4.209-3.416 7.624-7.624 7.624h-22.659c4.209 0 7.624-3.416 7.624-7.624v-2.379c0-4.712-2.508-9.065-6.587-11.421-2.036-1.182-3.682-2.859-4.819-4.826-1.136-1.975-1.761-4.239-1.761-6.595v-18.435c0-16.606-10.865-30.665-25.877-35.46 3.568-1.136 7.373-1.754 11.322-1.754 20.555 0 37.214 16.659 37.214 37.214v18.435c0 2.356.625 4.62 1.761 6.595 1.136 1.967 2.783 3.644 4.819 4.826 4.078 2.356 6.587 6.709 6.587 11.421z" fill="#cbe5e7"/></g></g><g><path d="m339.505 445.813s-49.829-62.22-41.204-92.406 59.14-48.667 59.14-48.667l-3.696 141.073z" fill="#f69583"/><path d="m511.997 329.69c0-11.908-9.653-21.561-21.561-21.561-11.908 0-21.561 9.653-21.561 21.561v-12.749c0-11.908-9.653-21.561-21.561-21.561-11.908 0-21.561 9.653-21.561 21.561v-10.199c0-11.908-9.653-21.561-21.561-21.561-11.908 0-21.561 9.653-21.561 21.561v-104.351c0-11.908-9.653-21.561-21.561-21.561-.445 0-.886.013-1.324.039-11.458.673-20.237 10.511-20.237 21.989v271.685c0 5.69 4.612 10.302 10.302 10.302h134.089c5.69 0 10.302-4.612 10.302-10.302v-19.285c0-3.025.807-5.995 2.338-8.603l7.837-13.355c4.989-8.502 7.62-18.181 7.62-28.039z" fill="#fdb0a0"/><path d="m511.996 330.18v75.08c0 9.862-2.629 19.543-7.615 28.04l-7.842 13.356c-1.528 2.611-2.338 5.577-2.338 8.607v19.281c0 5.69-4.612 10.302-10.302 10.302h-16.073v-29.583c0-3.03.81-5.996 2.338-8.607l7.833-13.356c4.995-8.498 7.624-18.178 7.624-28.04v-75.568c0-6.942-3.275-13.11-8.37-17.05 3.84-2.988 8.709-4.686 13.969-4.499 11.679.415 20.776 10.35 20.776 22.037z" fill="#f69583"/><path d="m339.506 312.96v74.791c0 4.265-3.461 7.726-7.726 7.726s-7.726-3.461-7.726-7.726v-65.375c5.233-3.688 10.6-6.83 15.452-9.416z" fill="#ea806f"/></g></g><g fill="#eef4f5"><path d="m114.357 170.092c-4.267 0-7.726 3.459-7.726 7.726v27.847c0 2.595-2.111 4.705-4.705 4.705s-4.705-2.111-4.705-4.705v-27.847c0-4.267-3.459-7.726-7.726-7.726s-7.726 3.459-7.726 7.726v27.847c0 11.115 9.043 20.158 20.158 20.158s20.158-9.043 20.158-20.158v-27.847c-.001-4.267-3.461-7.726-7.728-7.726z"/><path d="m46.59 185.545h14.794c4.267 0 7.726-3.459 7.726-7.726s-3.459-7.726-7.726-7.726h-14.794c-9.813 0-17.796 7.983-17.796 17.796s7.983 17.796 17.796 17.796h4.724c1.292 0 2.343 1.051 2.343 2.343s-1.051 2.344-2.343 2.344h-14.793c-4.267 0-7.726 3.459-7.726 7.726s3.459 7.726 7.726 7.726h14.794c9.813 0 17.796-7.983 17.796-17.796s-7.983-17.796-17.796-17.796h-4.725c-1.292 0-2.343-1.051-2.343-2.344 0-1.292 1.051-2.343 2.343-2.343z"/><path d="m142.467 225.823h13.868c10.197 0 18.493-8.296 18.493-18.493 0-4.788-1.844-9.142-4.84-12.429 1.178-2.32 1.857-4.935 1.857-7.71 0-9.429-7.671-17.099-17.099-17.099h-12.279c-4.267 0-7.726 3.459-7.726 7.726v40.279c0 4.267 3.459 7.726 7.726 7.726zm13.868-15.453h-6.141v-6.08h4.552 1.589c1.677 0 3.04 1.364 3.04 3.04 0 1.677-1.363 3.04-3.04 3.04zm.057-23.179c0 .908-.738 1.647-1.646 1.647h-4.552v-3.293h4.552c.908 0 1.646.738 1.646 1.646z"/><path d="m46.59 258.748h14.794c4.267 0 7.726-3.459 7.726-7.726s-3.459-7.726-7.726-7.726h-14.794c-9.813 0-17.796 7.983-17.796 17.796s7.983 17.796 17.796 17.796h4.724c1.292 0 2.343 1.051 2.343 2.343s-1.051 2.344-2.343 2.344h-14.793c-4.267 0-7.726 3.459-7.726 7.726s3.459 7.726 7.726 7.726h14.794c9.813 0 17.796-7.983 17.796-17.796s-7.983-17.796-17.796-17.796h-4.725c-1.292 0-2.343-1.051-2.343-2.344 0-1.291 1.051-2.343 2.343-2.343z"/><path d="m102.157 258.747c1.258 0 2.438.487 3.324 1.374.574.574.993 1.288 1.214 2.064 1.165 4.105 5.439 6.487 9.542 5.324 4.105-1.165 6.488-5.437 5.324-9.542-.938-3.306-2.72-6.34-5.153-8.772-3.804-3.805-8.865-5.9-14.251-5.9-11.117 0-20.16 9.039-20.16 20.15v15.422c0 5.385 2.095 10.446 5.899 14.251 3.811 3.811 8.876 5.91 14.261 5.91 8.99 0 16.971-6.044 19.408-14.698 1.156-4.108-1.236-8.375-5.343-9.531-4.108-1.157-8.375 1.236-9.531 5.343-.569 2.022-2.434 3.433-4.534 3.433-1.258 0-2.442-.491-3.335-1.384-.885-.886-1.373-2.066-1.373-3.324v-15.422c.001-2.591 2.112-4.698 4.708-4.698z"/><path d="m167.551 277.901c4.557-3.542 7.506-9.059 7.506-15.264 0-10.664-8.677-19.341-19.341-19.341h-13.248c-4.267 0-7.726 3.459-7.726 7.726v40.279c0 4.267 3.459 7.726 7.726 7.726s7.726-3.459 7.726-7.726v-9.322h1.437l9.315 13.673c1.495 2.195 3.922 3.377 6.392 3.377 1.498 0 3.012-.435 4.343-1.342 3.527-2.402 4.438-7.209 2.035-10.735zm-7.947-15.264c0 2.144-1.744 3.889-3.888 3.889h-.017c-.012 0-.025 0-.037 0h-5.469v-7.777h5.522c2.145-.001 3.889 1.744 3.889 3.888z"/><path d="m305.876 283.574h-17.137v-4.687h11.667c4.267 0 7.726-3.459 7.726-7.726s-3.459-7.726-7.726-7.726h-11.667v-4.687h17.137c4.267 0 7.726-3.459 7.726-7.726s-3.459-7.726-7.726-7.726h-24.863c-4.267 0-7.726 3.459-7.726 7.726v19.96c-.001.06-.009.119-.009.179 0 .061.008.119.009.179v19.96c0 4.267 3.459 7.726 7.726 7.726h24.863c4.267 0 7.726-3.459 7.726-7.726.001-4.267-3.459-7.726-7.726-7.726z"/><path d="m195.67 243.296c-4.267 0-7.726 3.459-7.726 7.726v40.279c0 4.267 3.459 7.726 7.726 7.726s7.726-3.459 7.726-7.726v-40.279c0-4.267-3.459-7.726-7.726-7.726z"/><path d="m257.537 260.395c0-9.429-7.671-17.099-17.1-17.099h-12.278c-4.267 0-7.726 3.459-7.726 7.726v40.279c0 4.267 3.459 7.726 7.726 7.726h13.868c10.197 0 18.492-8.296 18.492-18.493 0-4.788-1.844-9.142-4.84-12.429 1.179-2.32 1.858-4.935 1.858-7.71zm-15.453 0c0 .908-.739 1.647-1.647 1.647h-4.552v-3.293h4.552c.908-.001 1.647.738 1.647 1.646zm-.057 23.179h-6.141v-6.08h4.552 1.59c1.676 0 3.04 1.364 3.04 3.04-.002 1.677-1.365 3.04-3.041 3.04z"/><path d="m195.67 225.823h95.035c4.267 0 7.726-3.459 7.726-7.726s-3.459-7.726-7.726-7.726h-95.035c-4.267 0-7.726 3.459-7.726 7.726s3.459 7.726 7.726 7.726z"/></g></g></svg>